<svg width="512" height="114" viewBox="0 0 512 114" fill="none" xmlns="http://www.w3.org/2000/svg">
<path d="M14.3742 83.6334C15.7336 81.8773 18.255 81.5815 20.1167 82.7924C27.3363 87.4881 35.8006 90.0413 44.5262 90.0413C53.0081 90.0413 61.2411 87.6261 68.3253 83.1775C70.2059 81.9966 72.722 82.3326 74.0532 84.1099L81.0914 93.5071C82.4089 95.2661 82.067 97.7699 80.2394 98.9904C69.5293 106.143 56.9179 109.935 44.01 109.831C31.1018 109.727 18.551 105.733 7.95539 98.4087C6.14774 97.1591 5.84588 94.6504 7.19104 92.9127L14.3742 83.6334Z" fill="url(#paint0_linear_386_374)"/>
<path d="M89.5612 36.7333C89.5612 43.4889 88.4089 49.6111 86.1044 55.1C83.7999 60.4833 80.6574 65.075 76.6769 68.875C72.6964 72.675 67.9827 75.6306 62.5357 77.7417C57.0887 79.7472 51.1703 80.75 44.7806 80.75C38.3908 80.75 32.4725 79.7472 27.0255 77.7417C21.5785 75.6306 16.8124 72.675 12.7271 68.875C8.74662 65.075 5.60412 60.4833 3.29962 55.1C1.09987 49.6111 0 43.4889 0 36.7333V4.00001C0 1.79087 1.79086 0 4 0H15.7977C18.0069 0 19.7977 1.79086 19.7977 4V36.1C19.7977 38.8444 20.2167 41.7472 21.0547 44.8083C21.8927 47.7639 23.2545 50.5083 25.14 53.0417C27.1302 55.575 29.6966 57.6861 32.8391 59.375C36.0863 60.9583 40.0668 61.75 44.7806 61.75C49.4943 61.75 53.4225 60.9583 56.565 59.375C59.8122 57.6861 62.3786 55.575 64.2641 53.0417C66.2543 50.5083 67.6685 47.7639 68.5065 44.8083C69.3445 41.7472 69.7635 38.8444 69.7635 36.1V4C69.7635 1.79086 71.5543 0 73.7635 0H85.5612C87.7703 0 89.5612 1.79086 89.5612 4V36.7333Z" fill="url(#paint1_linear_386_374)"/>
<path d="M104.281 4C104.281 1.79086 106.071 0 108.281 0H118.193C120.402 0 122.193 1.79086 122.193 4V13.1002C122.193 13.2105 122.282 13.3 122.393 13.3C122.464 13.3 122.529 13.2621 122.565 13.2011C125.283 8.60758 128.93 5.26276 133.506 3.16666C138.115 1.05555 143.09 0 148.433 0C154.194 0 159.379 1.05555 163.988 3.16666C168.597 5.17222 172.525 7.96944 175.772 11.5583C179.02 15.1472 181.481 19.3694 183.157 24.225C184.833 29.0806 185.671 34.3056 185.671 39.9C185.671 45.4944 184.781 50.7194 183 55.575C181.219 60.4306 178.705 64.6528 175.458 68.2417C172.316 71.8306 168.492 74.6805 163.988 76.7917C159.484 78.7972 154.561 79.8 149.218 79.8C145.657 79.8 142.514 79.4306 139.791 78.6917C137.067 77.9528 134.658 77.0028 132.563 75.8417C130.468 74.6806 128.687 73.4667 127.221 72.2C125.803 70.8732 124.63 69.5958 123.701 68.3677C123.642 68.2886 123.549 68.2417 123.449 68.2417C123.276 68.2417 123.136 68.3821 123.136 68.5554V110C123.136 112.209 121.345 114 119.136 114H108.281C106.071 114 104.281 112.209 104.281 110V4ZM166.816 39.9C166.816 36.9444 166.293 34.0944 165.245 31.35C164.302 28.6055 162.836 26.1778 160.846 24.0667C158.96 21.9556 156.656 20.2667 153.932 19C151.209 17.7333 148.118 17.1 144.662 17.1C141.205 17.1 138.115 17.7333 135.391 19C132.668 20.2667 130.311 21.9556 128.321 24.0667C126.435 26.1778 124.969 28.6055 123.921 31.35C122.978 34.0944 122.507 36.9444 122.507 39.9C122.507 42.8556 122.978 45.7056 123.921 48.45C124.969 51.1944 126.435 53.6222 128.321 55.7333C130.311 57.8444 132.668 59.5333 135.391 60.8C138.115 62.0667 141.205 62.7 144.662 62.7C148.118 62.7 151.209 62.0667 153.932 60.8C156.656 59.5333 158.96 57.8444 160.846 55.7333C162.836 53.6222 164.302 51.1944 165.245 48.45C166.293 45.7056 166.816 42.8556 166.816 39.9Z" fill="url(#paint2_linear_386_374)"/>
<path d="M191.624 39.9C191.624 33.8833 192.671 28.4472 194.766 23.5917C196.966 18.6306 199.899 14.4083 203.565 10.925C207.231 7.44166 211.578 4.75 216.606 2.84999C221.634 0.949997 226.977 0 232.633 0C238.29 0 243.632 0.949997 248.66 2.84999C253.688 4.75 258.035 7.44166 261.701 10.925C265.368 14.4083 268.248 18.6306 270.343 23.5917C272.543 28.4472 273.643 33.8833 273.643 39.9C273.643 45.9167 272.543 51.4056 270.343 56.3667C268.248 61.2222 265.368 65.3917 261.701 68.875C258.035 72.3583 253.688 75.05 248.66 76.95C243.632 78.85 238.29 79.8 232.633 79.8C226.977 79.8 221.634 78.85 216.606 76.95C211.578 75.05 207.231 72.3583 203.565 68.875C199.899 65.3917 196.966 61.2222 194.766 56.3667C192.671 51.4056 191.624 45.9167 191.624 39.9ZM210.479 39.9C210.479 42.8556 210.95 45.7056 211.893 48.45C212.94 51.1944 214.407 53.6222 216.292 55.7333C218.282 57.8444 220.639 59.5333 223.363 60.8C226.086 62.0667 229.176 62.7 232.633 62.7C236.09 62.7 239.18 62.0667 241.904 60.8C244.627 59.5333 246.932 57.8444 248.817 55.7333C250.807 53.6222 252.274 51.1944 253.217 48.45C254.264 45.7056 254.788 42.8556 254.788 39.9C254.788 36.9444 254.264 34.0944 253.217 31.35C252.274 28.6055 250.807 26.1778 248.817 24.0667C246.932 21.9556 244.627 20.2667 241.904 19C239.18 17.7333 236.09 17.1 232.633 17.1C229.176 17.1 226.086 17.7333 223.363 19C220.639 20.2667 218.282 21.9556 216.292 24.0667C214.407 26.1778 212.94 28.6055 211.893 31.35C210.95 34.0944 210.479 36.9444 210.479 39.9Z" fill="url(#paint3_linear_386_374)"/>
<path d="M283.44 4.00001C283.44 1.79087 285.231 0 287.44 0H297.352C299.561 0 301.352 1.79086 301.352 4V13.8996C301.352 14.0057 301.438 14.0917 301.544 14.0917C301.619 14.0917 301.686 14.0485 301.718 13.9812C303.5 10.2282 306.206 6.9928 309.837 4.275C313.503 1.425 318.479 0 324.764 0C329.792 0 334.034 0.844443 337.491 2.53333C341.052 4.22222 343.933 6.43889 346.133 9.18333C348.332 11.9278 349.904 15.0944 350.846 18.6833C351.789 22.2722 352.26 26.0194 352.26 29.925V73.9C352.26 76.1091 350.47 77.9 348.26 77.9H337.405C335.196 77.9 333.405 76.1091 333.405 73.9V39.425C333.405 37.3139 333.301 34.9917 333.091 32.4583C332.882 29.8194 332.306 27.3917 331.363 25.175C330.525 22.8528 329.163 20.9528 327.278 19.475C325.392 17.8917 322.826 17.1 319.578 17.1C316.436 17.1 313.765 17.6278 311.565 18.6833C309.47 19.7389 307.689 21.1639 306.223 22.9583C304.861 24.7528 303.866 26.8111 303.238 29.1333C302.609 31.4556 302.295 33.8833 302.295 36.4167V73.9C302.295 76.1091 300.504 77.9 298.295 77.9H287.44C285.231 77.9 283.44 76.1091 283.44 73.9V4.00001Z" fill="url(#paint4_linear_386_374)"/>
<path d="M420.251 21.7716C418.66 23.3741 416.078 23.3166 414.339 21.8769C413.069 20.8248 411.766 19.9187 410.431 19.1583C408.022 17.7861 405.56 17.1 403.046 17.1C399.589 17.1 396.499 17.7333 393.776 19C391.052 20.2667 388.695 21.9556 386.705 24.0667C384.82 26.1778 383.353 28.6055 382.306 31.35C381.363 34.0944 380.892 36.9444 380.892 39.9C380.892 42.8556 381.363 45.7056 382.306 48.45C383.353 51.1944 384.82 53.6222 386.705 55.7333C388.695 57.8444 391.052 59.5333 393.776 60.8C396.499 62.0667 399.589 62.7 403.046 62.7C405.979 62.7 408.703 62.1194 411.217 60.9583C412.331 60.3967 413.374 59.7312 414.345 58.962C416.289 57.4207 419.198 57.2424 420.881 59.0658L427.632 66.3785C429.084 67.9517 429.054 70.4156 427.347 71.7072C426.195 72.5783 424.956 73.3759 423.63 74.1C421.22 75.4722 418.759 76.5806 416.245 77.425C413.731 78.2694 411.321 78.85 409.017 79.1667C406.712 79.5889 404.722 79.8 403.046 79.8C397.39 79.8 392.047 78.85 387.019 76.95C381.991 75.05 377.644 72.3583 373.978 68.875C370.312 65.3917 367.379 61.2222 365.179 56.3667C363.084 51.4056 362.037 45.9167 362.037 39.9C362.037 33.8833 363.084 28.4472 365.179 23.5917C367.379 18.6306 370.312 14.4083 373.978 10.925C377.644 7.44166 381.991 4.75 387.019 2.84999C392.047 0.949997 397.39 0 403.046 0C407.865 0 412.683 0.949997 417.502 2.84999C421.256 4.21856 424.646 6.2318 427.669 8.88972C429.272 10.2982 429.205 12.7482 427.702 14.2625L420.251 21.7716Z" fill="url(#paint5_linear_386_374)"/>
<path d="M429.981 39.9C429.981 33.8833 431.028 28.4472 433.123 23.5917C435.323 18.6306 438.256 14.4083 441.922 10.925C445.589 7.44166 449.936 4.75 454.964 2.84999C459.992 0.949997 465.334 0 470.99 0C476.647 0 481.989 0.949997 487.017 2.84999C492.045 4.75 496.392 7.44166 500.059 10.925C503.725 14.4083 506.605 18.6306 508.7 23.5917C510.9 28.4472 512 33.8833 512 39.9C512 45.9167 510.9 51.4056 508.7 56.3667C506.605 61.2222 503.725 65.3917 500.059 68.875C496.392 72.3583 492.045 75.05 487.017 76.95C481.989 78.85 476.647 79.8 470.99 79.8C465.334 79.8 459.992 78.85 454.964 76.95C449.936 75.05 445.589 72.3583 441.922 68.875C438.256 65.3917 435.323 61.2222 433.123 56.3667C431.028 51.4056 429.981 45.9167 429.981 39.9ZM448.836 39.9C448.836 42.8556 449.307 45.7056 450.25 48.45C451.297 51.1944 452.764 53.6222 454.649 55.7333C456.64 57.8444 458.997 59.5333 461.72 60.8C464.444 62.0667 467.534 62.7 470.99 62.7C474.447 62.7 477.537 62.0667 480.261 60.8C482.984 59.5333 485.289 57.8444 487.174 55.7333C489.165 53.6222 490.631 51.1944 491.574 48.45C492.621 45.7056 493.145 42.8556 493.145 39.9C493.145 36.9444 492.621 34.0944 491.574 31.35C490.631 28.6055 489.165 26.1778 487.174 24.0667C485.289 21.9556 482.984 20.2667 480.261 19C477.537 17.7333 474.447 17.1 470.99 17.1C467.534 17.1 464.444 17.7333 461.72 19C458.997 20.2667 456.64 21.9556 454.649 24.0667C452.764 26.1778 451.297 28.6055 450.25 31.35C449.307 34.0944 448.836 36.9444 448.836 39.9Z" fill="url(#paint6_linear_386_374)"/>
<defs>
<linearGradient id="paint0_linear_386_374" x1="416.094" y1="-1.43419e-05" x2="95.9064" y2="114" gradientUnits="userSpaceOnUse">
<stop stop-color="#3884FE"/>
<stop offset="1" stop-color="#0063FF"/>
</linearGradient>
<linearGradient id="paint1_linear_386_374" x1="416.094" y1="-1.43419e-05" x2="95.9064" y2="114" gradientUnits="userSpaceOnUse">
<stop stop-color="#3884FE"/>
<stop offset="1" stop-color="#0063FF"/>
</linearGradient>
<linearGradient id="paint2_linear_386_374" x1="416.094" y1="-1.43419e-05" x2="95.9064" y2="114" gradientUnits="userSpaceOnUse">
<stop stop-color="#3884FE"/>
<stop offset="1" stop-color="#0063FF"/>
</linearGradient>
<linearGradient id="paint3_linear_386_374" x1="416.094" y1="-1.43419e-05" x2="95.9064" y2="114" gradientUnits="userSpaceOnUse">
<stop stop-color="#3884FE"/>
<stop offset="1" stop-color="#0063FF"/>
</linearGradient>
<linearGradient id="paint4_linear_386_374" x1="416.094" y1="-1.43419e-05" x2="95.9064" y2="114" gradientUnits="userSpaceOnUse">
<stop stop-color="#3884FE"/>
<stop offset="1" stop-color="#0063FF"/>
</linearGradient>
<linearGradient id="paint5_linear_386_374" x1="416.094" y1="-1.43419e-05" x2="95.9064" y2="114" gradientUnits="userSpaceOnUse">
<stop stop-color="#3884FE"/>
<stop offset="1" stop-color="#0063FF"/>
</linearGradient>
<linearGradient id="paint6_linear_386_374" x1="416.094" y1="-1.43419e-05" x2="95.9064" y2="114" gradientUnits="userSpaceOnUse">
<stop stop-color="#3884FE"/>
<stop offset="1" stop-color="#0063FF"/>
</linearGradient>
</defs>
</svg>
